# xmcd
# Copyright (C) 1995-1998 Ti Kan
#
# Track frame offsets:
#       150
#       16346
#       33093
#       49221
#       65738
#       88541
#
# Disc length: 1473 seconds
#
# Revision: 0
# Processed by: cddbd v1.5.2PL0 Copyright (c) Steve Scherf et al.
# Submitted via: CD-Transfer v1.0
#
DISCID=4505bf06
DTITLE=Pangolin - The Sound Of Blood Inside Your Head
DYEAR=05
DGENRE=
TTITLE0=Anyone Can Start A War
TTITLE1=Stuck In The Sand
TTITLE2=Jets In Empty Skies
TTITLE3=My Difficulty Way To The Jesus
TTITLE4=Driving North
TTITLE5=Les Normales Saisonnières
EXTD=
EXTT0=
EXTT1=
EXTT2=
EXTT3=
EXTT4=
EXTT5=
PLAYORDER=
